<?xml version="1.0" encoding="UTF-8"?>
<svg width="96px" height="74px" viewBox="0 0 96 74" version="1.1" xmlns="http://www.w3.org/2000/svg" xmlns:xlink="http://www.w3.org/1999/xlink">
    <!-- Generator: Sketch 50.2 (55047) - http://www.bohemiancoding.com/sketch -->
    <title>noun_Arrow_1920765</title>
    <desc>Created with Sketch.</desc>
    <defs></defs>
    <g id="Page-1" stroke="none" stroke-width="1" fill="none" fill-rule="evenodd">
        <g id="noun_Arrow_1920765" transform="translate(48.000000, 37.000000) scale(-1, 1) rotate(90.000000) translate(-48.000000, -37.000000) translate(11.000000, -11.000000)" fill="#002FFF" fill-rule="nonzero">
            <path d="M43.4,92.8 L71.3,65 C74.9,61.4 74.9,55.7 71.3,52.1 C67.7,48.5 62,48.5 58.4,52.1 L46.1,64.4 L46.1,9.6 C46.1,4.6 42,0.5 37,0.5 C32,0.5 27.9,4.6 27.9,9.6 L27.9,64.4 L15.6,52.2 C12,48.6 6.3,48.6 2.7,52.2 C0.9,54 0,56.3 0,58.6 C0,60.9 0.9,63.3 2.7,65 L30.5,92.8 C32.2,94.5 34.5,95.5 36.9,95.5 C39.3,95.5 41.7,94.5 43.4,92.8 Z" id="Shape"></path>
        </g>
    </g>
</svg>