<?xml version="1.0" encoding="UTF-8"?>
<svg width="16px" height="17px" viewBox="0 0 16 17" version="1.1" xmlns="http://www.w3.org/2000/svg" xmlns:xlink="http://www.w3.org/1999/xlink">
    <!-- Generator: Sketch 51.2 (57519) - http://www.bohemiancoding.com/sketch -->
    <title>Group 2</title>
    <desc>Created with Sketch.</desc>
    <defs></defs>
    <g id="Symbols" stroke="none" stroke-width="1" fill="none" fill-rule="evenodd">
        <g id="SIDE-MENU-2" transform="translate(-72.000000, -340.000000)" fill="#7ED321" fill-rule="nonzero">
            <g id="SIDE-MENU">
                <g id="Group-2" transform="translate(72.000000, 340.000000)">
                    <path d="M8.26406893,6.78513582 C8.18120577,6.86783055 1.53884788,14.243999 0.0895847199,15.8111569 C-0.107636333,16.0242095 0.0626373514,16.1121253 0.20006893,16.0939358 C7.52015314,15.1172621 8.81076367,10.0651358 8.85876367,9.78202003 C8.90760577,9.49317792 8.7526584,8.89915687 9.07147946,8.54799897 C9.25707946,8.3433674 9.42550051,8.21738845 9.53514261,8.14614634 C9.97354261,8.19347266 10.4276058,8.0393674 10.7467637,7.68753582 L15.5553531,2.38631476 C16.0852058,1.80239897 16.0412479,0.899830553 15.4573321,0.370146343 C14.8732479,-0.159537868 13.9708479,-0.115411552 13.4413321,0.468335817 L8.63274261,5.76955687 C8.37067946,6.05823055 8.24992156,6.42471476 8.26406893,6.78513582 Z" id="Shape"></path>
                </g>
            </g>
        </g>
    </g>
</svg>