<?xml version="1.0" encoding="UTF-8"?>
<svg width="263px" height="30px" viewBox="0 0 263 30" version="1.1" xmlns="http://www.w3.org/2000/svg" xmlns:xlink="http://www.w3.org/1999/xlink">
    <!-- Generator: Sketch 50.2 (55047) - http://www.bohemiancoding.com/sketch -->
    <title>Group</title>
    <desc>Created with Sketch.</desc>
    <defs></defs>
    <g id="Page-1" stroke="none" stroke-width="1" fill="none" fill-rule="evenodd">
        <g id="001" transform="translate(-50.000000, -50.000000)" fill="#000000">
            <g id="HEADER" transform="translate(50.000000, 50.000000)">
                <g id="Group">
                    <g id="logo-copy">
                        <rect id="Rectangle" x="34.7265881" y="1.02419693" width="24.1799947" height="24.0686277"></rect>
                        <ellipse id="Oval" cx="12.8616993" cy="12.8024616" rx="12.8616993" ry="12.8024616"></ellipse>
                    </g>
                    <path d="M77.9566906,1.71428571 C84.4122878,1.71428571 89.0933606,5.79484778 89.0933606,12.5339578 C89.0933606,19.2730679 84.4122878,23.35363 77.9566906,23.35363 L71.1033553,23.35363 L71.1033553,1.71428571 L77.9566906,1.71428571 Z M78.1402621,5.36206089 L75.0195469,5.36206089 L75.0195469,19.7058548 L78.1402621,19.7058548 C81.9952633,19.7058548 84.8712165,17.2018735 84.8712165,12.5339578 C84.8712165,7.86604215 81.9952633,5.36206089 78.1402621,5.36206089 Z M98.5013993,8.60796253 C102.784734,8.60796253 105.354735,11.3592506 105.354735,16.2435597 L105.354735,16.9854801 L94.7993744,16.9854801 C95.0135411,19.1803279 96.604494,20.4477752 98.7767565,20.4477752 C100.796043,20.4477752 102.203424,19.3039813 102.998901,18.5002342 L104.895806,21.2515222 C103.641401,22.4262295 101.744495,23.8173302 98.7767565,23.8173302 C94.1568742,23.8173302 91.15854,20.787822 91.15854,16.2435597 C91.15854,11.6992974 94.0650885,8.60796253 98.5013993,8.60796253 Z M98.3178278,11.6683841 C96.5127082,11.6683841 95.1971126,12.5648712 94.8911601,14.5433255 L101.560924,14.5433255 C101.438543,12.7194379 100.153543,11.6683841 98.3178278,11.6683841 Z M112.927059,23.8173302 C110.968963,23.8173302 108.73551,23.35363 106.8692,22.3025761 L108.398962,19.0875878 C109.806343,19.9222482 111.427891,20.5714286 113.141225,20.5714286 C114.303845,20.5714286 114.885154,20.2622951 114.885154,19.5512881 C114.885154,18.9948478 114.487416,18.7166276 113.661344,18.3147541 L111.121939,17.2018735 C108.888486,16.2126464 107.940033,14.7906323 107.940033,12.9358314 C107.940033,10.15363 109.867534,8.60796253 113.416582,8.60796253 C115.038131,8.60796253 116.78206,8.97892272 118.434203,9.5971897 L117.179798,12.7812646 C115.894797,12.2248244 114.487416,11.7920375 113.202416,11.7920375 C112.100987,11.7920375 111.764439,12.1320843 111.764439,12.6576112 C111.764439,13.2140515 112.131582,13.523185 113.11063,13.9559719 L115.650036,15.0688525 C117.638727,15.9035129 118.770751,17.1091335 118.770751,19.2421546 C118.770751,22.3953162 116.445512,23.8173302 112.927059,23.8173302 Z M125.394622,1.89976581 L125.394622,6.07306792 L121.111287,6.07306792 L121.111287,1.89976581 L125.394622,1.89976581 Z M121.356049,23.35363 L121.356049,9.07166276 L125.119265,9.07166276 L125.119265,23.35363 L121.356049,23.35363 Z M136.240637,30 C134.649684,30 132.538612,29.7217799 130.488731,29.3199063 L131.161826,25.7030445 C133.211708,26.1976581 134.894446,26.4140515 136.087661,26.4140515 C138.596471,26.4140515 139.606114,25.5175644 139.606114,22.6735363 L139.606114,21.3442623 L139.544924,21.3442623 C138.657662,22.6735363 137.18909,23.7245902 134.802661,23.7245902 C131.100636,23.7245902 128.041111,21.0351288 128.041111,16.2126464 C128.041111,11.3283372 131.131231,8.60796253 134.833256,8.60796253 C137.127899,8.60796253 138.657662,9.5971897 139.544924,11.0810304 L139.606114,11.0810304 L139.606114,9.07166276 L143.338735,9.07166276 L143.338735,23.35363 C143.277544,28.4234192 140.462781,30 136.240637,30 Z M135.781709,20.2313817 C138.045757,20.2313817 139.606114,18.6238876 139.606114,16.2126464 C139.606114,13.8014052 138.045757,12.193911 135.781709,12.193911 C133.51766,12.193911 131.957303,13.8014052 131.957303,16.2126464 C131.957303,18.6238876 133.51766,20.2313817 135.781709,20.2313817 Z M155.347369,8.60796253 C158.406894,8.60796253 160.670942,10.3391101 160.670942,14.5433255 L160.670942,23.35363 L156.907727,23.35363 L156.907727,15.4398126 C156.907727,13.1213115 155.836893,12.1320843 154.001178,12.1320843 C152.073678,12.1320843 150.696892,13.2758782 150.696892,16.3672131 L150.696892,23.35363 L146.964272,23.35363 L146.964272,9.07166276 L150.666297,9.07166276 L150.666297,11.2355972 L150.727487,11.2355972 C151.67594,9.5971897 153.266893,8.60796253 155.347369,8.60796253 Z M177.345352,19.6440281 L186.279165,19.6440281 L186.279165,23.35363 L173.429161,23.35363 L173.429161,1.71428571 L186.126188,1.71428571 L186.126188,5.42388759 L177.345352,5.42388759 L177.345352,9.75175644 L185.361307,9.75175644 L185.361307,13.3995316 L177.345352,13.3995316 L177.345352,19.6440281 Z M197.890061,8.60796253 C200.949586,8.60796253 203.213634,10.3391101 203.213634,14.5433255 L203.213634,23.35363 L199.450419,23.35363 L199.450419,15.4398126 C199.450419,13.1213115 198.379585,12.1320843 196.54387,12.1320843 C194.61637,12.1320843 193.239584,13.2758782 193.239584,16.3672131 L193.239584,23.35363 L189.506963,23.35363 L189.506963,9.07166276 L193.208988,9.07166276 L193.208988,11.2355972 L193.270179,11.2355972 C194.218631,9.5971897 195.809584,8.60796253 197.890061,8.60796253 Z M214.090245,30 C212.499292,30 210.38822,29.7217799 208.338338,29.3199063 L209.011434,25.7030445 C211.061315,26.1976581 212.744054,26.4140515 213.937268,26.4140515 C216.446079,26.4140515 217.455722,25.5175644 217.455722,22.6735363 L217.455722,21.3442623 L217.394531,21.3442623 C216.507269,22.6735363 215.038697,23.7245902 212.652268,23.7245902 C208.950243,23.7245902 205.890718,21.0351288 205.890718,16.2126464 C205.890718,11.3283372 208.980838,8.60796253 212.682863,8.60796253 C214.977507,8.60796253 216.507269,9.5971897 217.394531,11.0810304 L217.455722,11.0810304 L217.455722,9.07166276 L221.188342,9.07166276 L221.188342,23.35363 C221.127151,28.4234192 218.312389,30 214.090245,30 Z M213.631316,20.2313817 C215.895364,20.2313817 217.455722,18.6238876 217.455722,16.2126464 C217.455722,13.8014052 215.895364,12.193911 213.631316,12.193911 C211.367268,12.193911 209.80691,13.8014052 209.80691,16.2126464 C209.80691,18.6238876 211.367268,20.2313817 213.631316,20.2313817 Z M228.913642,1.89976581 L228.913642,6.07306792 L224.630308,6.07306792 L224.630308,1.89976581 L228.913642,1.89976581 Z M224.875069,23.35363 L224.875069,9.07166276 L228.638285,9.07166276 L228.638285,23.35363 L224.875069,23.35363 Z M240.799896,8.60796253 C243.859421,8.60796253 246.123469,10.3391101 246.123469,14.5433255 L246.123469,23.35363 L242.360253,23.35363 L242.360253,15.4398126 C242.360253,13.1213115 241.28942,12.1320843 239.453705,12.1320843 C237.526204,12.1320843 236.149418,13.2758782 236.149418,16.3672131 L236.149418,23.35363 L232.416798,23.35363 L232.416798,9.07166276 L236.118823,9.07166276 L236.118823,11.2355972 L236.180014,11.2355972 C237.128466,9.5971897 238.719419,8.60796253 240.799896,8.60796253 Z M256.143412,8.60796253 C260.426747,8.60796253 262.996748,11.3592506 262.996748,16.2435597 L262.996748,16.9854801 L252.441388,16.9854801 C252.655554,19.1803279 254.246507,20.4477752 256.41877,20.4477752 C258.438056,20.4477752 259.845437,19.3039813 260.640914,18.5002342 L262.537819,21.2515222 C261.283414,22.4262295 259.386509,23.8173302 256.41877,23.8173302 C251.798887,23.8173302 248.800553,20.787822 248.800553,16.2435597 C248.800553,11.6992974 251.707102,8.60796253 256.143412,8.60796253 Z M255.959841,11.6683841 C254.154721,11.6683841 252.839126,12.5648712 252.533173,14.5433255 L259.202937,14.5433255 C259.080556,12.7194379 257.795556,11.6683841 255.959841,11.6683841 Z" id="Design-Engine"></path>
                </g>
            </g>
        </g>
    </g>
</svg>